<svg xmlns="http://www.w3.org/2000/svg" xmlns:xlink="http://www.w3.org/1999/xlink" width="500" zoomAndPan="magnify" viewBox="0 0 375 374.999991" height="500" preserveAspectRatio="xMidYMid meet" version="1.0"><defs><filter x="0%" y="0%" width="100%" height="100%" id="0fa1750cef"><feColorMatrix values="0 0 0 0 1 0 0 0 0 1 0 0 0 0 1 0 0 0 1 0" color-interpolation-filters="sRGB"/></filter><mask id="cf679cbdfd"><g filter="url(#0fa1750cef)"><rect x="-37.5" width="450" fill="#000000" y="-37.499999" height="449.999989" fill-opacity="0.96"/></g></mask><clipPath id="3406c33f28"><path d="M 204 124 L 247.761719 124 L 247.761719 164 L 204 164 Z M 204 124 " clip-rule="nonzero"/></clipPath><clipPath id="12fdb1249f"><path d="M 0.320312 253 L 45 253 L 45 297 L 0.320312 297 Z M 0.320312 253 " clip-rule="nonzero"/></clipPath><clipPath id="069f508ded"><path d="M 127 285 L 179 285 L 179 318.320312 L 127 318.320312 Z M 127 285 " clip-rule="nonzero"/></clipPath><clipPath id="e0b05ba816"><rect x="0" width="248" y="0" height="319"/></clipPath></defs><g mask="url(#cf679cbdfd)"><g transform="matrix(1, 0, 0, 1, 70, 28)"><g clip-path="url(#e0b05ba816)"><path fill="#a6a6a6" d="M 242.070312 149.539062 C 241.222656 151.953125 239.714844 154.269531 237.617188 156.289062 C 230.851562 162.808594 184.023438 171.269531 166.425781 174.257812 C 162.285156 174.964844 159.757812 175.363281 159.757812 175.363281 L 146.488281 156.53125 C 146.488281 156.53125 215.742188 127.585938 230.339844 131.472656 C 241.277344 134.386719 244.605469 142.351562 242.070312 149.539062 Z M 242.070312 149.539062 " fill-opacity="1" fill-rule="nonzero"/><path fill="#004aad" d="M 242.070312 149.539062 C 241.222656 151.953125 239.714844 154.269531 237.617188 156.289062 C 230.851562 162.808594 184.023438 171.269531 166.425781 174.257812 C 166.132812 169.457031 165.691406 163.90625 165.691406 163.90625 C 165.691406 163.90625 222.3125 156.90625 234.933594 150.710938 C 237.035156 149.6875 239.503906 149.34375 242.070312 149.539062 Z M 242.070312 149.539062 " fill-opacity="1" fill-rule="nonzero"/><path fill="#171717" d="M 147.335938 156.777344 C 151.839844 162.835938 156.203125 168.757812 160.476562 174.855469 L 159.621094 174.492188 C 167.75 172.316406 175.988281 170.820312 184.21875 169.300781 C 192.445312 167.75 200.65625 166.105469 208.800781 164.242188 C 212.867188 163.304688 216.921875 162.3125 220.933594 161.207031 C 224.929688 160.09375 228.929688 158.894531 232.632812 157.308594 C 233.109375 157.125 233.535156 156.890625 233.980469 156.679688 C 234.199219 156.570312 234.425781 156.464844 234.636719 156.351562 L 235.234375 155.992188 C 235.425781 155.871094 235.65625 155.757812 235.8125 155.628906 L 236.285156 155.25 C 236.449219 155.148438 236.617188 154.964844 236.785156 154.792969 C 236.953125 154.621094 237.132812 154.457031 237.285156 154.273438 C 238.578125 152.855469 239.644531 151.242188 240.335938 149.496094 C 241.046875 147.757812 241.347656 145.890625 241.210938 144.074219 C 241.074219 142.253906 240.429688 140.511719 239.417969 138.988281 C 238.378906 137.476562 236.957031 136.207031 235.324219 135.207031 C 233.683594 134.21875 231.851562 133.480469 229.941406 132.957031 C 229.128906 132.738281 228.171875 132.648438 227.199219 132.636719 C 226.222656 132.628906 225.222656 132.664062 224.214844 132.761719 C 222.203125 132.933594 220.167969 133.269531 218.140625 133.648438 C 214.085938 134.425781 210.046875 135.449219 206.027344 136.5625 C 202.011719 137.679688 198.015625 138.902344 194.035156 140.179688 C 186.074219 142.738281 178.160156 145.480469 170.296875 148.367188 C 166.367188 149.808594 162.441406 151.28125 158.53125 152.78125 L 152.667969 155.042969 L 149.742188 156.1875 L 148.28125 156.769531 L 147.554688 157.058594 L 147.1875 157.207031 L 147.007812 157.277344 L 146.917969 157.316406 C 146.929688 157.308594 146.824219 157.355469 146.933594 157.304688 C 147.125 157.214844 147.304688 156.972656 147.335938 156.777344 Z M 145.644531 156.289062 C 145.703125 156.085938 145.914062 155.832031 146.132812 155.730469 L 146.242188 155.683594 L 146.511719 155.566406 L 146.875 155.414062 L 147.601562 155.101562 L 149.050781 154.488281 L 151.957031 153.273438 L 157.78125 150.878906 C 161.675781 149.304688 165.582031 147.761719 169.5 146.246094 C 177.339844 143.230469 185.222656 140.308594 193.203125 137.640625 C 197.199219 136.316406 201.210938 135.039062 205.265625 133.867188 C 209.320312 132.699219 213.40625 131.613281 217.578125 130.769531 C 219.667969 130.355469 221.773438 129.984375 223.9375 129.773438 C 225.019531 129.660156 226.121094 129.601562 227.238281 129.601562 C 228.363281 129.609375 229.511719 129.683594 230.730469 129.992188 C 232.871094 130.554688 234.980469 131.367188 236.945312 132.519531 C 238.898438 133.6875 240.699219 135.234375 242.054688 137.179688 C 243.394531 139.125 244.261719 141.441406 244.441406 143.808594 C 244.628906 146.175781 244.234375 148.554688 243.367188 150.703125 C 242.519531 152.863281 241.238281 154.804688 239.714844 156.492188 C 239.53125 156.710938 239.320312 156.902344 239.125 157.105469 C 238.929688 157.308594 238.742188 157.511719 238.472656 157.714844 L 237.71875 158.316406 C 237.464844 158.515625 237.21875 158.632812 236.96875 158.796875 L 236.21875 159.246094 C 235.96875 159.382812 235.71875 159.5 235.46875 159.625 C 234.96875 159.867188 234.46875 160.136719 233.96875 160.332031 C 229.960938 162.0625 225.902344 163.28125 221.832031 164.433594 C 217.757812 165.574219 213.667969 166.589844 209.5625 167.550781 C 201.359375 169.457031 193.121094 171.140625 184.871094 172.722656 C 176.617188 174.3125 168.332031 175.738281 159.898438 176.234375 L 159.355469 176.324219 L 159.035156 175.875 C 154.472656 169.414062 149.988281 162.785156 145.644531 156.289062 Z M 145.644531 156.289062 " fill-opacity="1" fill-rule="nonzero"/><path fill="#a6a6a6" d="M 241.234375 156.183594 C 231.050781 166.84375 218.925781 160.824219 218.925781 160.824219 L 217.761719 159.792969 C 216.757812 158.894531 215.816406 157.960938 214.925781 156.984375 C 209.171875 150.660156 205.902344 142.78125 205.734375 134.640625 C 205.734375 134.640625 217.398438 124.523438 230.941406 125.714844 C 232.90625 125.886719 234.742188 126.425781 236.394531 127.257812 C 246.132812 132.144531 249.929688 147.078125 241.234375 156.183594 Z M 241.234375 156.183594 " fill-opacity="1" fill-rule="nonzero"/><path fill="#004aad" d="M 241.234375 156.183594 C 231.050781 166.84375 218.925781 160.824219 218.925781 160.824219 L 217.761719 159.792969 C 216.757812 158.894531 215.816406 157.960938 214.925781 156.984375 L 215.339844 156.109375 C 215.339844 156.109375 224.179688 158.035156 233.238281 152.882812 C 240.691406 148.640625 239.714844 135.351562 236.394531 127.257812 C 246.132812 132.144531 249.929688 147.078125 241.234375 156.183594 Z M 241.234375 156.183594 " fill-opacity="1" fill-rule="nonzero"/><g clip-path="url(#3406c33f28)"><path fill="#171717" d="M 206.308594 135.308594 C 206.917969 133.945312 206.476562 134.933594 206.617188 134.632812 L 206.617188 134.679688 L 206.621094 134.738281 L 206.625 134.855469 L 206.636719 135.082031 L 206.660156 135.542969 C 206.675781 135.847656 206.679688 136.15625 206.710938 136.457031 C 206.78125 137.066406 206.820312 137.679688 206.910156 138.285156 C 207.089844 139.496094 207.316406 140.703125 207.632812 141.890625 C 208.246094 144.261719 209.136719 146.566406 210.261719 148.746094 C 211.386719 150.929688 212.746094 152.992188 214.300781 154.894531 C 215.082031 155.847656 215.90625 156.761719 216.777344 157.632812 C 217.648438 158.5 218.5625 159.324219 219.507812 160.167969 L 219.316406 160.035156 C 220.113281 160.292969 221.023438 160.53125 221.902344 160.695312 C 222.789062 160.871094 223.679688 160.984375 224.566406 161.058594 C 226.347656 161.195312 228.121094 161.101562 229.839844 160.804688 C 231.574219 160.523438 233.207031 159.882812 234.785156 159.152344 L 236.496094 158.179688 L 237.027344 157.785156 L 238.089844 157.003906 C 238.277344 156.882812 238.441406 156.730469 238.597656 156.574219 L 239.085938 156.121094 C 241.789062 153.816406 243.570312 150.683594 244.273438 147.261719 C 245 143.84375 244.578125 140.191406 243.257812 136.929688 C 241.902344 133.695312 239.675781 130.757812 236.683594 128.96875 C 235.203125 128.070312 233.5625 127.421875 231.847656 127.136719 C 231.414062 127.089844 231 126.992188 230.542969 126.980469 L 229.191406 126.914062 L 228.515625 126.882812 C 228.289062 126.875 228.0625 126.898438 227.835938 126.90625 L 226.476562 126.96875 C 219.226562 127.550781 212.148438 130.851562 206.308594 135.308594 Z M 205.15625 133.976562 C 208.15625 131.414062 211.441406 129.371094 214.976562 127.707031 C 215.867188 127.304688 216.753906 126.898438 217.675781 126.570312 C 218.582031 126.195312 219.523438 125.914062 220.460938 125.625 C 220.925781 125.464844 221.40625 125.359375 221.886719 125.242188 L 223.324219 124.90625 L 224.789062 124.679688 C 225.28125 124.613281 225.765625 124.503906 226.265625 124.492188 L 227.75 124.394531 C 228 124.382812 228.246094 124.355469 228.492188 124.355469 L 229.242188 124.375 L 230.734375 124.417969 C 231.234375 124.421875 231.757812 124.523438 232.265625 124.574219 C 234.308594 124.875 236.285156 125.609375 238.066406 126.644531 C 239.855469 127.679688 241.4375 129.042969 242.746094 130.613281 C 244.070312 132.179688 245.144531 133.941406 245.921875 135.828125 C 247.46875 139.589844 247.996094 143.808594 247.175781 147.847656 C 246.773438 149.863281 246.046875 151.824219 245.019531 153.613281 C 244 155.398438 242.648438 157.039062 241.136719 158.351562 L 240.582031 158.871094 C 240.398438 159.046875 240.214844 159.214844 240.003906 159.363281 L 238.78125 160.277344 L 238.164062 160.730469 L 237.5 161.117188 L 236.167969 161.886719 C 235.707031 162.117188 235.226562 162.304688 234.757812 162.507812 L 234.046875 162.804688 C 233.804688 162.894531 233.554688 162.957031 233.308594 163.03125 C 232.816406 163.175781 232.324219 163.332031 231.828125 163.460938 L 230.308594 163.722656 C 228.277344 163.996094 226.21875 163.957031 224.226562 163.605469 C 223.238281 163.421875 222.257812 163.179688 221.3125 162.847656 C 220.351562 162.527344 219.460938 162.136719 218.53125 161.609375 L 218.402344 161.535156 L 218.335938 161.476562 C 217.402344 160.648438 216.445312 159.78125 215.527344 158.875 C 214.617188 157.960938 213.75 157.007812 212.933594 156.007812 C 211.304688 154.011719 209.875 151.84375 208.691406 149.550781 C 207.507812 147.253906 206.574219 144.828125 205.921875 142.328125 C 205.59375 141.074219 205.351562 139.804688 205.164062 138.523438 C 205.070312 137.886719 205.023438 137.238281 204.953125 136.597656 C 204.921875 136.273438 204.917969 135.949219 204.898438 135.625 L 204.863281 134.898438 L 204.855469 134.777344 L 204.855469 134.714844 L 204.851562 134.6875 L 204.851562 134.664062 C 204.988281 134.359375 204.550781 135.34375 205.15625 133.976562 Z M 205.15625 133.976562 " fill-opacity="1" fill-rule="nonzero"/></g><path fill="#a6a6a6" d="M 102.511719 143.75 L 88.6875 152.246094 L 82.882812 155.8125 C 82.882812 155.8125 48.148438 133.882812 29.75 118.765625 C 24.066406 114.097656 19.945312 110.074219 18.878906 107.550781 C 14.375 96.851562 20.417969 85.421875 35.363281 87.613281 C 50.308594 89.808594 102.511719 143.75 102.511719 143.75 Z M 102.511719 143.75 " fill-opacity="1" fill-rule="nonzero"/><path fill="#004aad" d="M 88.6875 152.246094 L 82.882812 155.8125 C 82.882812 155.8125 48.148438 133.882812 29.75 118.765625 L 40.035156 116.871094 C 40.03125 116.867188 72.613281 141.734375 88.6875 152.246094 Z M 88.6875 152.246094 " fill-opacity="1" fill-rule="nonzero"/><path fill="#171717" d="M 103.382812 143.859375 C 96.828125 148.109375 90.09375 152.433594 83.347656 156.558594 L 82.878906 156.84375 L 82.417969 156.550781 L 82.414062 156.550781 C 75.269531 152.128906 68.21875 147.574219 61.210938 142.941406 C 54.207031 138.304688 47.273438 133.558594 40.464844 128.613281 C 37.0625 126.140625 33.691406 123.613281 30.386719 120.988281 C 27.089844 118.347656 23.832031 115.652344 20.832031 112.519531 C 20.445312 112.144531 20.097656 111.707031 19.734375 111.292969 C 19.550781 111.082031 19.367188 110.882812 19.195312 110.660156 L 18.6875 109.964844 C 18.523438 109.722656 18.34375 109.519531 18.191406 109.242188 L 17.742188 108.417969 C 17.578125 108.136719 17.488281 107.878906 17.386719 107.613281 C 17.289062 107.351562 17.171875 107.097656 17.09375 106.824219 C 16.355469 104.703125 15.941406 102.4375 16.007812 100.144531 C 16.050781 97.855469 16.617188 95.542969 17.703125 93.46875 C 18.785156 91.386719 20.464844 89.621094 22.433594 88.363281 C 24.417969 87.113281 26.660156 86.394531 28.902344 86.082031 C 31.148438 85.785156 33.398438 85.855469 35.582031 86.164062 C 36.820312 86.355469 37.902344 86.734375 38.9375 87.164062 C 39.96875 87.597656 40.960938 88.074219 41.910156 88.601562 C 43.820312 89.636719 45.617188 90.796875 47.378906 91.992188 C 54.394531 96.816406 60.839844 102.257812 67.140625 107.839844 C 73.433594 113.433594 79.578125 119.175781 85.550781 125.085938 C 88.539062 128.039062 91.53125 130.988281 94.453125 134.007812 L 98.828125 138.542969 L 100.996094 140.828125 L 102.074219 141.976562 L 102.609375 142.554688 L 102.875 142.84375 L 103.011719 142.988281 L 103.078125 143.0625 L 103.15625 143.152344 C 103.316406 143.328125 103.410156 143.644531 103.382812 143.859375 Z M 101.636719 143.636719 C 101.585938 143.828125 101.65625 144.121094 101.796875 144.273438 C 101.875 144.367188 101.796875 144.28125 101.808594 144.292969 L 101.738281 144.222656 L 100.753906 143.265625 L 99.625 142.171875 L 97.371094 139.984375 L 92.84375 135.625 C 89.804688 132.742188 86.796875 129.828125 83.738281 126.96875 C 77.617188 121.253906 71.484375 115.554688 65.191406 110.050781 C 62.046875 107.300781 58.855469 104.605469 55.625 101.972656 C 52.390625 99.34375 49.105469 96.789062 45.699219 94.449219 C 43.996094 93.285156 42.265625 92.164062 40.488281 91.195312 C 39.605469 90.703125 38.703125 90.265625 37.804688 89.882812 C 36.90625 89.503906 35.992188 89.199219 35.152344 89.066406 C 33.1875 88.78125 31.207031 88.722656 29.292969 88.964844 C 27.382812 89.226562 25.550781 89.824219 23.972656 90.804688 C 22.410156 91.804688 21.097656 93.167969 20.238281 94.8125 C 19.375 96.453125 18.898438 98.320312 18.859375 100.222656 C 18.792969 102.128906 19.136719 104.058594 19.765625 105.894531 C 19.832031 106.128906 19.9375 106.351562 20.019531 106.578125 C 20.105469 106.808594 20.191406 107.042969 20.300781 107.210938 L 20.597656 107.773438 C 20.695312 107.960938 20.863281 108.15625 20.992188 108.347656 L 21.402344 108.929688 C 21.550781 109.121094 21.71875 109.308594 21.878906 109.496094 C 22.203125 109.875 22.503906 110.261719 22.863281 110.621094 C 25.640625 113.578125 28.832031 116.289062 32.054688 118.914062 C 35.289062 121.539062 38.609375 124.078125 41.964844 126.570312 C 55.433594 136.488281 69.332031 145.898438 83.355469 155.058594 L 83.359375 155.058594 L 82.425781 155.054688 C 88.761719 151.144531 95.109375 147.425781 101.636719 143.636719 Z M 101.636719 143.636719 " fill-opacity="1" fill-rule="nonzero"/><path fill="#a6a6a6" d="M 56.722656 100.246094 C 53.445312 107.46875 47.550781 113.304688 40.039062 116.871094 C 38.660156 117.527344 37.226562 118.101562 35.742188 118.601562 L 34.265625 119.089844 C 34.265625 119.089844 20.75 119.835938 15.605469 106.019531 C 12.96875 98.9375 15.285156 91.707031 19.914062 86.914062 C 24.3125 82.363281 30.796875 80.015625 37.09375 82.085938 C 50 86.34375 56.722656 100.246094 56.722656 100.246094 Z M 56.722656 100.246094 " fill-opacity="1" fill-rule="nonzero"/><path fill="#004aad" d="M 42.089844 115.382812 L 40.039062 116.867188 C 38.660156 117.527344 37.226562 118.101562 35.742188 118.601562 L 34.265625 119.089844 C 34.265625 119.089844 20.75 119.835938 15.605469 106.015625 C 12.96875 98.933594 15.285156 91.707031 19.914062 86.914062 C 18.839844 92.988281 16.660156 115.140625 42.089844 115.382812 Z M 42.089844 115.382812 " fill-opacity="1" fill-rule="nonzero"/><path fill="#171717" d="M 32.390625 82.214844 C 28.144531 82.214844 23.859375 84.085938 20.523438 87.554688 C 15.695312 92.574219 14.125 99.527344 16.425781 105.714844 C 21.085938 118.226562 32.738281 118.253906 34.105469 118.214844 L 35.460938 117.761719 C 44.5625 114.714844 51.933594 108.351562 55.742188 100.261719 C 54.582031 98.070312 48.058594 86.628906 36.8125 82.921875 C 35.375 82.449219 33.886719 82.214844 32.390625 82.214844 Z M 34.003906 119.976562 C 31.894531 119.976562 19.644531 119.398438 14.777344 106.324219 C 12.234375 99.503906 13.953125 91.84375 19.257812 86.332031 C 24.238281 81.15625 31.179688 79.210938 37.367188 81.25 C 50.480469 85.574219 57.234375 99.277344 57.515625 99.859375 L 57.695312 100.230469 L 57.527344 100.609375 C 53.570312 109.324219 45.730469 116.183594 36.019531 119.433594 L 34.433594 119.964844 L 34.316406 119.96875 C 34.304688 119.972656 34.195312 119.976562 34.003906 119.976562 Z M 34.003906 119.976562 " fill-opacity="1" fill-rule="nonzero"/><path fill="#a6a6a6" d="M 163.378906 311.304688 L 142.789062 315.089844 C 140.785156 315.460938 138.800781 315.316406 136.988281 314.757812 C 133.292969 313.625 130.285156 310.765625 129.175781 306.925781 C 129.136719 306.789062 129.09375 306.65625 129.066406 306.519531 L 117.226562 259.167969 C 115.9375 254.015625 97.171875 236.808594 96.960938 228.820312 L 98.097656 228.609375 L 109.082031 226.59375 L 103.871094 205.742188 C 102.21875 199.105469 106.789062 192.460938 113.75 191.386719 L 122.527344 190.035156 C 128.148438 189.171875 133.574219 192.261719 135.519531 197.429688 L 170.941406 291.585938 L 172.519531 295.777344 C 175.070312 302.539062 170.699219 309.960938 163.378906 311.304688 Z M 163.378906 311.304688 " fill-opacity="1" fill-rule="nonzero"/><path fill="#004aad" d="M 141.484375 294.011719 L 136.988281 314.757812 C 133.292969 313.625 130.285156 310.765625 129.175781 306.925781 C 129.136719 306.789062 129.09375 306.65625 129.066406 306.519531 L 117.226562 259.167969 C 115.9375 254.015625 97.171875 236.808594 96.960938 228.820312 L 98.097656 228.609375 L 121.367188 240.515625 Z M 141.484375 294.011719 " fill-opacity="1" fill-rule="nonzero"/><path fill="#171717" d="M 174.226562 295.128906 C 174.835938 296.769531 175.132812 298.53125 175.070312 300.292969 C 175.011719 302.046875 174.589844 303.785156 173.859375 305.378906 C 172.410156 308.574219 169.65625 311.109375 166.417969 312.414062 C 166.007812 312.5625 165.597656 312.722656 165.183594 312.855469 L 163.914062 313.167969 C 163.125 313.335938 162.421875 313.457031 161.664062 313.601562 L 157.214844 314.449219 L 143.867188 316.980469 C 143.496094 317.050781 143.144531 317.125 142.683594 317.1875 C 142.246094 317.246094 141.8125 317.320312 141.371094 317.328125 C 140.929688 317.351562 140.488281 317.382812 140.046875 317.351562 C 139.605469 317.332031 139.164062 317.320312 138.726562 317.25 C 135.210938 316.828125 131.867188 315.023438 129.609375 312.238281 C 129.320312 311.894531 129.078125 311.515625 128.816406 311.152344 C 128.570312 310.78125 128.355469 310.386719 128.132812 310 C 127.933594 309.597656 127.75 309.1875 127.566406 308.777344 L 127.136719 307.539062 C 126.984375 307.015625 126.910156 306.6875 126.816406 306.316406 L 126.539062 305.222656 L 125.984375 303.023438 L 123.765625 294.242188 L 119.4375 276.660156 L 115.207031 259.335938 C 115.027344 258.867188 114.667969 258.253906 114.316406 257.679688 C 113.9375 257.089844 113.535156 256.496094 113.105469 255.90625 C 112.25 254.722656 111.335938 253.546875 110.40625 252.375 C 108.550781 250.019531 106.652344 247.664062 104.789062 245.253906 C 102.953125 242.828125 101.117188 240.378906 99.503906 237.734375 C 98.695312 236.414062 97.925781 235.0625 97.28125 233.613281 C 96.640625 232.167969 96.101562 230.605469 96.082031 228.84375 L 96.015625 228.097656 L 96.800781 227.953125 L 108.921875 225.726562 L 108.226562 226.808594 L 102.902344 206.074219 C 102.40625 204.214844 102.363281 202.199219 102.785156 200.296875 C 103.199219 198.394531 104.066406 196.597656 105.273438 195.074219 C 106.476562 193.546875 108.035156 192.292969 109.789062 191.445312 C 110.671875 191.027344 111.589844 190.6875 112.535156 190.464844 C 113.519531 190.234375 114.375 190.121094 115.257812 189.972656 L 120.539062 189.128906 C 121.433594 188.996094 122.253906 188.835938 123.265625 188.734375 C 123.753906 188.6875 124.246094 188.6875 124.734375 188.679688 C 125.222656 188.714844 125.714844 188.710938 126.199219 188.796875 C 130.101562 189.257812 133.746094 191.609375 135.773438 195.03125 C 136.007812 195.46875 136.269531 195.894531 136.449219 196.355469 L 136.738281 197.035156 L 136.976562 197.660156 L 137.933594 200.15625 L 139.84375 205.15625 L 143.664062 215.152344 Z M 170.816406 296.414062 L 141.082031 216.128906 L 137.367188 206.09375 L 135.507812 201.078125 L 134.578125 198.566406 L 134.347656 197.941406 L 134.113281 197.386719 C 133.976562 197.011719 133.765625 196.675781 133.585938 196.324219 C 132 193.578125 129.074219 191.621094 125.882812 191.210938 C 125.488281 191.136719 125.082031 191.140625 124.683594 191.101562 C 124.285156 191.105469 123.878906 191.097656 123.476562 191.136719 C 122.714844 191.199219 121.777344 191.359375 120.90625 191.484375 L 115.613281 192.269531 C 114.734375 192.398438 113.820312 192.523438 113.0625 192.695312 C 112.273438 192.867188 111.507812 193.140625 110.769531 193.480469 C 109.300781 194.160156 107.992188 195.1875 106.976562 196.445312 C 104.917969 198.953125 104.058594 202.40625 104.882812 205.582031 L 109.9375 226.382812 L 110.160156 227.300781 L 109.242188 227.460938 L 97.121094 229.6875 L 97.84375 228.800781 C 97.992188 230.070312 98.582031 231.382812 99.257812 232.640625 C 99.949219 233.898438 100.773438 235.117188 101.644531 236.304688 C 103.40625 238.675781 105.304688 240.980469 107.273438 243.242188 L 113.210938 250.078125 C 114.199219 251.234375 115.179688 252.40625 116.136719 253.640625 C 116.617188 254.253906 117.089844 254.894531 117.550781 255.5625 C 118 256.261719 118.464844 256.929688 118.851562 257.855469 C 118.953125 258.09375 119.039062 258.375 119.125 258.640625 L 119.273438 259.203125 L 119.558594 260.300781 L 120.132812 262.492188 L 121.273438 266.875 L 123.511719 275.660156 L 127.96875 293.226562 L 130.148438 302.023438 L 131.214844 306.292969 C 131.570312 307.542969 132.132812 308.601562 132.910156 309.570312 C 134.453125 311.492188 136.785156 312.78125 139.261719 313.117188 C 139.570312 313.175781 139.882812 313.179688 140.195312 313.199219 C 140.507812 313.230469 140.820312 313.203125 141.136719 313.195312 C 141.449219 313.199219 141.761719 313.144531 142.074219 313.105469 C 142.359375 313.078125 142.753906 313.003906 143.125 312.9375 L 147.582031 312.144531 L 160.964844 309.765625 C 161.695312 309.632812 162.476562 309.503906 163.167969 309.363281 L 164.101562 309.148438 C 164.402344 309.054688 164.699219 308.9375 165.003906 308.835938 C 167.363281 307.914062 169.390625 306.097656 170.46875 303.792969 C 171.558594 301.492188 171.6875 298.808594 170.816406 296.414062 Z M 170.816406 296.414062 " fill-opacity="1" fill-rule="nonzero"/><path fill="#a6a6a6" d="M 113.695312 217.460938 L 107.296875 234.429688 C 105.421875 235.917969 102.027344 238.0625 98.089844 240.445312 C 88.832031 246.027344 76.554688 252.90625 73.859375 255.484375 L 40.082031 287.71875 L 38.554688 289.175781 C 37.867188 289.832031 37.121094 290.386719 36.328125 290.835938 C 31.980469 293.308594 26.304688 292.714844 22.375 289.085938 L 6.992188 274.886719 C 1.523438 269.835938 1.792969 261.234375 7.566406 256.867188 L 9.71875 255.242188 L 91.390625 193.515625 C 95.792969 190.1875 102.035156 190.476562 106.324219 194.203125 L 113.023438 200.039062 C 118.332031 204.667969 118.640625 212.730469 113.695312 217.460938 Z M 113.695312 217.460938 " fill-opacity="1" fill-rule="nonzero"/><path fill="#c8c6c1" d="M 57.878906 226.398438 L 18.804688 254.160156 L 14.675781 253.511719 L 12.472656 253.15625 L 10.261719 252.808594 L 54.339844 219.742188 L 55.015625 221.011719 L 55.6875 222.277344 Z M 57.878906 226.398438 " fill-opacity="1" fill-rule="nonzero"/><path fill="#004aad" d="M 99.542969 237.035156 C 99.511719 237.226562 98.972656 238.472656 98.085938 240.445312 C 88.832031 246.027344 76.550781 252.90625 73.855469 255.484375 L 40.078125 287.71875 L 38.550781 289.175781 C 37.863281 289.832031 37.117188 290.386719 36.324219 290.835938 L 37.804688 266.34375 L 79.246094 234.496094 C 79.25 234.492188 99.757812 235.769531 99.542969 237.035156 Z M 99.542969 237.035156 " fill-opacity="1" fill-rule="nonzero"/><path fill="#171717" d="M 112.933594 216.988281 L 112.875 217.144531 L 106.585938 233.914062 C 106.296875 234.082031 106.019531 234.246094 105.753906 234.425781 L 105.347656 234.695312 L 104.859375 234.992188 C 104.214844 235.394531 103.574219 235.808594 102.910156 236.199219 C 101.605469 237 100.265625 237.761719 98.9375 238.53125 C 98.933594 238.53125 98.933594 238.535156 98.925781 238.535156 L 90.847656 243.09375 C 88.144531 244.601562 85.457031 246.148438 82.761719 247.703125 C 81.414062 248.472656 80.078125 249.273438 78.746094 250.085938 C 77.410156 250.910156 76.082031 251.730469 74.75 252.652344 L 73.753906 253.363281 L 72.726562 254.214844 L 71.027344 255.804688 L 67.65625 259.007812 L 60.921875 265.410156 L 47.492188 278.257812 L 40.777344 284.683594 L 37.421875 287.894531 C 37.113281 288.1875 36.789062 288.464844 36.457031 288.710938 C 35.734375 289.25 34.949219 289.6875 34.09375 289.996094 C 31.621094 290.929688 28.769531 290.808594 26.335938 289.703125 C 26.027344 289.578125 25.738281 289.414062 25.449219 289.25 C 25.152344 289.097656 24.878906 288.902344 24.605469 288.710938 C 24.316406 288.535156 24.070312 288.3125 23.8125 288.097656 C 23.566406 287.902344 23.277344 287.632812 22.992188 287.367188 L 19.574219 284.222656 L 9.320312 274.777344 C 8.109375 273.679688 7.175781 272.816406 6.4375 271.683594 C 4.921875 269.46875 4.386719 266.632812 4.90625 264.03125 C 5.164062 262.726562 5.679688 261.484375 6.433594 260.390625 C 6.636719 260.132812 6.800781 259.84375 7.03125 259.605469 C 7.257812 259.371094 7.476562 259.121094 7.714844 258.882812 L 8.46875 258.238281 C 8.746094 258.015625 9.082031 257.777344 9.378906 257.539062 L 14.679688 253.511719 L 55.691406 222.285156 L 68.527344 212.503906 L 83.296875 201.226562 L 90.679688 195.574219 L 91.601562 194.867188 L 92.058594 194.519531 L 92.492188 194.214844 C 92.769531 194.007812 93.070312 193.832031 93.375 193.660156 C 93.667969 193.480469 93.992188 193.355469 94.304688 193.203125 C 95.578125 192.640625 96.972656 192.375 98.367188 192.363281 C 99.765625 192.363281 101.171875 192.609375 102.476562 193.144531 C 103.121094 193.414062 103.757812 193.726562 104.34375 194.113281 C 104.644531 194.300781 104.9375 194.5 105.207031 194.730469 L 105.625 195.058594 L 106.066406 195.433594 L 111.351562 199.980469 L 112.230469 200.738281 C 112.511719 200.984375 112.746094 201.234375 113.011719 201.476562 C 115.007812 203.492188 116.214844 206.28125 116.242188 209.132812 L 116.242188 209.324219 C 116.242188 212.109375 115.101562 214.875 113.089844 216.820312 Z M 114.496094 200.027344 C 114.195312 199.738281 113.890625 199.421875 113.597656 199.160156 L 112.726562 198.390625 L 110.984375 196.859375 L 107.496094 193.78125 L 107.058594 193.398438 L 106.570312 193 C 106.253906 192.726562 105.90625 192.484375 105.550781 192.253906 C 104.851562 191.777344 104.09375 191.394531 103.316406 191.0625 C 101.761719 190.40625 100.0625 190.074219 98.367188 190.058594 C 96.671875 190.046875 94.957031 190.351562 93.382812 191.023438 C 92.992188 191.199219 92.59375 191.351562 92.226562 191.574219 C 91.847656 191.773438 91.476562 191.984375 91.132812 192.238281 L 90.609375 192.597656 L 90.140625 192.949219 L 89.210938 193.640625 L 81.757812 199.195312 L 66.878906 210.328125 L 54.335938 219.742188 L 10.261719 252.808594 L 7.417969 254.941406 C 7.101562 255.179688 6.804688 255.390625 6.480469 255.660156 L 5.46875 256.515625 C 5.15625 256.828125 4.859375 257.15625 4.558594 257.480469 C 4.253906 257.808594 4.019531 258.183594 3.75 258.535156 C 2.734375 259.992188 2.035156 261.660156 1.691406 263.394531 C 0.996094 266.851562 1.707031 270.582031 3.679688 273.507812 C 3.894531 273.886719 4.199219 274.210938 4.460938 274.5625 C 4.71875 274.921875 5.023438 275.242188 5.328125 275.550781 L 5.785156 276.023438 C 5.945312 276.175781 6.074219 276.289062 6.222656 276.425781 L 7.074219 277.21875 L 10.484375 280.371094 L 17.300781 286.679688 L 20.710938 289.839844 C 20.992188 290.101562 21.265625 290.359375 21.621094 290.652344 C 21.957031 290.933594 22.292969 291.226562 22.664062 291.460938 C 23.019531 291.714844 23.386719 291.972656 23.773438 292.179688 C 24.152344 292.394531 24.539062 292.613281 24.945312 292.777344 C 28.15625 294.246094 31.945312 294.425781 35.289062 293.183594 C 36.953125 292.570312 38.503906 291.585938 39.773438 290.363281 L 43.136719 287.164062 L 49.867188 280.757812 L 63.335938 267.945312 L 70.042969 261.511719 L 73.394531 258.296875 L 75.0625 256.683594 L 75.8125 256.046875 L 76.699219 255.390625 C 79.117188 253.652344 81.785156 252.046875 84.386719 250.40625 L 92.289062 245.539062 C 94.925781 243.910156 97.5625 242.273438 100.164062 240.5625 C 101.46875 239.714844 102.765625 238.855469 104.050781 237.960938 C 104.699219 237.527344 105.339844 237.058594 105.964844 236.585938 L 106.441406 236.242188 L 106.96875 235.820312 C 107.320312 235.527344 107.667969 235.234375 108.003906 234.941406 L 114.445312 217.949219 C 116.800781 215.675781 118.171875 212.40625 118.15625 209.121094 C 118.183594 205.773438 116.832031 202.4375 114.496094 200.027344 Z M 114.496094 200.027344 " fill-opacity="1" fill-rule="nonzero"/><path fill="#004aad" d="M 47.929688 213.585938 L 46.652344 219.320312 C 46.097656 221.800781 47.492188 224.296875 49.894531 225.125 C 59.039062 228.28125 81.347656 235.734375 99.277344 239.734375 C 117.265625 243.746094 141.570312 247.144531 151.523438 248.460938 C 154.089844 248.800781 156.488281 247.125 157.050781 244.597656 L 159.421875 233.953125 C 160.039062 231.183594 158.226562 228.453125 155.429688 227.949219 L 53.683594 209.761719 C 51.050781 209.285156 48.511719 210.972656 47.929688 213.585938 Z M 47.929688 213.585938 " fill-opacity="1" fill-rule="nonzero"/><path fill="#a6a6a6" d="M 48.199219 210.890625 L 46.917969 216.625 C 46.367188 219.101562 47.757812 221.597656 50.160156 222.429688 C 59.304688 225.585938 81.613281 233.039062 99.546875 237.035156 C 117.53125 241.050781 141.835938 244.445312 151.789062 245.765625 C 154.355469 246.105469 156.753906 244.429688 157.316406 241.898438 L 159.691406 231.257812 C 160.308594 228.484375 158.492188 225.753906 155.695312 225.253906 L 53.949219 207.0625 C 51.316406 206.589844 48.78125 208.277344 48.199219 210.890625 Z M 48.199219 210.890625 " fill-opacity="1" fill-rule="nonzero"/><path fill="#171717" d="M 52.792969 210.558594 C 50.902344 210.558594 49.21875 211.863281 48.789062 213.777344 L 47.511719 219.507812 C 47.054688 221.554688 48.203125 223.609375 50.179688 224.289062 C 59.015625 227.339844 81.507812 234.863281 99.472656 238.871094 C 117.488281 242.890625 141.957031 246.304688 151.640625 247.585938 C 153.765625 247.863281 155.722656 246.5 156.191406 244.40625 L 158.5625 233.761719 C 158.808594 232.65625 158.601562 231.527344 157.972656 230.585938 C 157.34375 229.644531 156.386719 229.015625 155.269531 228.816406 L 53.523438 210.625 C 53.28125 210.578125 53.039062 210.558594 52.792969 210.558594 Z M 152.199219 249.382812 C 151.9375 249.382812 151.671875 249.367188 151.410156 249.332031 C 141.703125 248.046875 117.171875 244.625 99.085938 240.589844 C 81.035156 236.5625 58.46875 229.015625 49.605469 225.957031 C 46.78125 224.980469 45.140625 222.042969 45.792969 219.121094 L 47.070312 213.390625 C 47.757812 210.308594 50.730469 208.328125 53.839844 208.882812 L 155.585938 227.074219 C 157.175781 227.359375 158.546875 228.257812 159.441406 229.605469 C 160.339844 230.953125 160.636719 232.5625 160.285156 234.140625 L 157.910156 244.78125 C 157.300781 247.519531 154.917969 249.382812 152.199219 249.382812 Z M 152.199219 249.382812 " fill-opacity="1" fill-rule="nonzero"/><path fill="#a6a6a6" d="M 168.390625 227.914062 C 166.144531 237.34375 155.0625 240.414062 142.640625 240.710938 C 124.253906 241.140625 102.925781 235.515625 102.925781 235.515625 C 102.925781 235.515625 81.222656 231.546875 64.773438 223.339844 C 58.234375 220.078125 52.523438 216.152344 49.328125 211.535156 C 47.089844 208.296875 46.082031 204.726562 46.894531 200.8125 C 50.632812 182.789062 79.058594 139.703125 92.207031 120.464844 C 96.242188 114.554688 98.835938 110.898438 98.835938 110.898438 L 128.78125 119.589844 L 159.589844 124.445312 C 159.589844 124.445312 173.984375 204.515625 168.390625 227.914062 Z M 168.390625 227.914062 " fill-opacity="1" fill-rule="nonzero"/><path fill="#004aad" d="M 107.019531 136.777344 C 107.019531 136.777344 102.238281 140.742188 98.082031 147.535156 C 93.929688 154.328125 76.511719 169.902344 69.835938 172.875 C 63.164062 175.847656 48.46875 203.738281 49.710938 209.675781 C 49.886719 210.515625 49.730469 211.117188 49.328125 211.53125 C 47.089844 208.296875 46.082031 204.726562 46.894531 200.808594 C 50.632812 182.785156 79.058594 139.699219 92.207031 120.460938 Z M 107.019531 136.777344 " fill-opacity="1" fill-rule="nonzero"/><path fill="#171717" d="M 166.480469 227.457031 C 167.316406 223.484375 167.582031 219.199219 167.726562 214.9375 C 167.847656 210.660156 167.773438 206.351562 167.605469 202.042969 C 167.242188 193.417969 166.523438 184.785156 165.652344 176.164062 C 164.765625 167.546875 163.71875 158.933594 162.554688 150.339844 C 161.394531 141.746094 160.125 133.15625 158.722656 124.605469 L 159.453125 125.320312 L 128.648438 120.460938 L 128.59375 120.453125 L 128.539062 120.4375 L 98.597656 111.742188 L 99.558594 111.40625 C 91.230469 123.382812 83.164062 135.5625 75.40625 147.914062 C 71.535156 154.097656 67.75 160.328125 64.113281 166.644531 C 60.503906 172.964844 56.976562 179.347656 53.886719 185.90625 C 52.339844 189.179688 50.871094 192.496094 49.703125 195.875 C 49.390625 196.714844 49.164062 197.570312 48.886719 198.421875 C 48.621094 199.269531 48.457031 200.121094 48.238281 200.972656 C 47.929688 202.605469 47.910156 204.242188 48.246094 205.84375 C 48.96875 209.046875 51.050781 211.902344 53.59375 214.257812 C 56.148438 216.628906 59.125 218.617188 62.25 220.34375 C 65.375 222.078125 68.660156 223.558594 71.988281 224.933594 C 75.335938 226.28125 78.75 227.472656 82.195312 228.574219 C 85.644531 229.671875 89.136719 230.644531 92.648438 231.535156 C 96.152344 232.421875 99.714844 233.234375 103.226562 233.890625 L 103.28125 233.902344 L 103.351562 233.921875 C 106.15625 234.621094 109.054688 235.242188 111.933594 235.804688 C 114.816406 236.367188 117.710938 236.871094 120.613281 237.292969 C 126.417969 238.160156 132.261719 238.742188 138.082031 238.875 C 140.992188 238.933594 143.898438 238.898438 146.765625 238.640625 C 149.632812 238.386719 152.464844 237.953125 155.167969 237.195312 C 157.851562 236.425781 160.398438 235.3125 162.449219 233.703125 C 164.511719 232.109375 165.863281 229.921875 166.480469 227.457031 Z M 170.304688 228.367188 C 169.496094 231.652344 167.488281 234.730469 164.828125 236.726562 C 162.1875 238.757812 159.175781 239.996094 156.171875 240.832031 C 153.152344 241.644531 150.101562 242.082031 147.066406 242.320312 C 144.027344 242.570312 141 242.574219 137.988281 242.488281 C 131.960938 242.300781 125.996094 241.648438 120.089844 240.714844 C 117.136719 240.253906 114.195312 239.71875 111.269531 239.121094 C 108.332031 238.519531 105.441406 237.875 102.507812 237.113281 L 102.628906 237.140625 C 98.972656 236.417969 95.414062 235.574219 91.84375 234.640625 C 88.28125 233.703125 84.746094 232.683594 81.242188 231.53125 C 77.738281 230.382812 74.265625 229.136719 70.84375 227.71875 C 67.433594 226.28125 64.0625 224.726562 60.816406 222.882812 C 57.570312 221.050781 54.433594 218.933594 51.652344 216.308594 C 50.285156 214.976562 48.960938 213.554688 47.917969 211.882812 C 46.867188 210.230469 45.980469 208.40625 45.578125 206.417969 C 45.171875 204.4375 45.21875 202.367188 45.617188 200.414062 C 45.859375 199.5 46.054688 198.558594 46.339844 197.667969 C 46.636719 196.777344 46.890625 195.871094 47.21875 195.003906 C 48.472656 191.488281 49.996094 188.125 51.597656 184.8125 C 54.792969 178.179688 58.398438 171.792969 62.085938 165.464844 C 65.796875 159.148438 69.65625 152.929688 73.589844 146.765625 C 81.480469 134.441406 89.660156 122.324219 98.121094 110.386719 L 98.121094 110.382812 L 98.484375 109.871094 L 99.085938 110.046875 L 129.03125 118.742188 L 128.921875 118.714844 L 159.730469 123.574219 L 160.347656 123.667969 L 160.457031 124.285156 C 162.0625 132.839844 163.527344 141.402344 164.890625 149.992188 C 166.253906 158.582031 167.5 167.191406 168.589844 175.828125 C 169.664062 184.464844 170.585938 193.132812 171.152344 201.855469 C 171.421875 206.214844 171.601562 210.59375 171.578125 215 C 171.539062 219.414062 171.34375 223.851562 170.304688 228.367188 Z M 170.304688 228.367188 " fill-opacity="1" fill-rule="nonzero"/><path fill="#ff3131" d="M 146.46875 147.867188 C 146.46875 147.867188 147.710938 185.820312 168.28125 195.109375 L 168.285156 195.109375 C 166.726562 176.132812 163.652344 155.035156 161.503906 141.550781 C 155.996094 143.578125 146.46875 147.867188 146.46875 147.867188 Z M 146.46875 147.867188 " fill-opacity="1" fill-rule="nonzero"/><path fill="#171717" d="M 147.375 148.425781 C 147.644531 153.109375 150.0625 184.34375 167.277344 193.628906 C 165.742188 175.75 162.957031 156.371094 160.800781 142.757812 C 156.113281 144.550781 149.335938 147.550781 147.375 148.425781 Z M 169.265625 196.261719 L 167.917969 195.914062 C 147.089844 186.507812 145.636719 149.46875 145.585938 147.898438 L 145.566406 147.304688 L 146.101562 147.0625 C 146.199219 147.019531 155.722656 142.738281 161.195312 140.722656 L 162.203125 140.351562 L 162.371094 141.410156 C 164.613281 155.480469 167.613281 176.207031 169.164062 195.035156 Z M 169.265625 196.261719 " fill-opacity="1" fill-rule="nonzero"/><path fill="#ff3131" d="M 101.914062 134.996094 C 101.914062 134.996094 84.660156 168.824219 62.09375 168.492188 L 62.085938 168.488281 C 71.566406 151.972656 83.3125 134.179688 90.988281 122.890625 C 95.109375 127.066406 101.914062 134.996094 101.914062 134.996094 Z M 101.914062 134.996094 " fill-opacity="1" fill-rule="nonzero"/><path fill="#171717" d="M 91.109375 124.277344 C 83.375 135.6875 72.617188 152.046875 63.628906 167.578125 C 83.160156 166.488281 98.625 139.242188 100.855469 135.113281 C 99.449219 133.492188 94.589844 127.894531 91.109375 124.277344 Z M 62.429688 169.371094 C 62.3125 169.371094 62.195312 169.371094 62.078125 169.371094 L 61.917969 169.355469 L 60.71875 169.113281 L 61.320312 168.050781 C 70.726562 151.667969 82.246094 134.183594 90.257812 122.398438 L 90.859375 121.511719 L 91.613281 122.273438 C 95.710938 126.421875 102.515625 134.34375 102.582031 134.425781 L 102.96875 134.871094 L 102.699219 135.398438 C 101.988281 136.789062 85.105469 169.371094 62.429688 169.371094 Z M 62.429688 169.371094 " fill-opacity="1" fill-rule="nonzero"/><path fill="#a6a6a6" d="M 152.550781 196.277344 L 142.640625 240.707031 C 124.253906 241.140625 102.925781 235.515625 102.925781 235.515625 C 102.925781 235.515625 85.105469 232.253906 69.523438 225.539062 C 67.910156 224.839844 66.316406 224.105469 64.773438 223.335938 L 74.679688 178.90625 C 75.609375 174.746094 79.730469 172.132812 83.878906 173.0625 L 92.804688 175.050781 L 146.707031 187.078125 C 150.863281 188.003906 153.476562 192.117188 152.550781 196.277344 Z M 152.550781 196.277344 " fill-opacity="1" fill-rule="nonzero"/><path fill="#004aad" d="M 96.238281 176.949219 C 96.238281 176.949219 81.679688 174.148438 79.246094 179.808594 C 77.210938 184.554688 71.371094 215.578125 69.523438 225.539062 C 67.910156 224.839844 66.316406 224.105469 64.773438 223.335938 L 74.679688 178.90625 C 75.609375 174.746094 79.730469 172.132812 83.875 173.0625 L 92.800781 175.050781 Z M 96.238281 176.949219 " fill-opacity="1" fill-rule="nonzero"/><path fill="#171717" d="M 151.472656 196.035156 C 151.710938 194.863281 151.679688 193.628906 151.277344 192.496094 C 150.910156 191.359375 150.195312 190.339844 149.292969 189.5625 C 148.835938 189.175781 148.324219 188.863281 147.785156 188.605469 C 147.507812 188.496094 147.234375 188.367188 146.945312 188.292969 L 146.511719 188.171875 L 146.007812 188.054688 L 141.917969 187.144531 L 125.558594 183.496094 L 92.839844 176.195312 L 84.660156 174.371094 L 83.636719 174.140625 C 83.339844 174.105469 83.046875 174.015625 82.75 174.015625 C 82.152344 173.945312 81.554688 174.011719 80.964844 174.105469 C 80.378906 174.222656 79.808594 174.414062 79.269531 174.675781 C 78.742188 174.960938 78.226562 175.273438 77.789062 175.6875 C 77.351562 176.089844 76.945312 176.539062 76.636719 177.050781 C 76.304688 177.550781 76.066406 178.105469 75.890625 178.675781 L 75.769531 179.109375 L 75.65625 179.613281 L 75.425781 180.636719 L 74.96875 182.679688 L 73.140625 190.859375 L 69.410156 207.203125 L 67.542969 215.371094 L 65.628906 223.535156 L 65.160156 222.554688 L 65.164062 222.554688 C 68.140625 224.003906 71.183594 225.335938 74.289062 226.523438 C 77.398438 227.695312 80.539062 228.796875 83.722656 229.769531 C 86.90625 230.746094 90.113281 231.648438 93.34375 232.46875 C 96.570312 233.277344 99.832031 234.03125 103.082031 234.65625 L 103.117188 234.660156 L 103.148438 234.671875 C 106.351562 235.484375 109.625 236.191406 112.890625 236.828125 C 116.164062 237.460938 119.449219 238.007812 122.746094 238.472656 C 126.042969 238.945312 129.355469 239.28125 132.667969 239.542969 C 135.984375 239.789062 139.304688 239.875 142.617188 239.832031 L 141.777344 240.519531 L 144.164062 229.390625 L 146.597656 218.273438 Z M 153.628906 196.515625 L 148.589844 218.710938 L 146.066406 229.8125 L 143.5 240.898438 L 143.339844 241.585938 L 142.660156 241.585938 C 139.28125 241.632812 135.902344 241.542969 132.542969 241.292969 C 129.183594 241.03125 125.835938 240.691406 122.507812 240.210938 C 119.175781 239.738281 115.859375 239.1875 112.558594 238.550781 C 109.257812 237.90625 105.984375 237.199219 102.699219 236.367188 L 102.765625 236.382812 C 99.441406 235.742188 96.179688 234.988281 92.917969 234.167969 C 89.660156 233.34375 86.421875 232.433594 83.207031 231.445312 C 79.988281 230.460938 76.8125 229.351562 73.660156 228.160156 C 70.511719 226.960938 67.417969 225.601562 64.378906 224.125 L 64.375 224.125 L 63.761719 223.839844 L 63.90625 223.144531 L 65.640625 214.945312 L 67.421875 206.753906 L 70.992188 190.375 L 72.8125 182.195312 L 73.265625 180.148438 L 73.496094 179.128906 L 73.613281 178.609375 L 73.769531 178.035156 C 74 177.269531 74.328125 176.53125 74.765625 175.863281 C 75.183594 175.179688 75.71875 174.574219 76.308594 174.039062 C 76.894531 173.492188 77.578125 173.066406 78.277344 172.695312 C 78.996094 172.34375 79.757812 172.089844 80.542969 171.929688 C 81.328125 171.800781 82.132812 171.722656 82.929688 171.8125 C 83.328125 171.820312 83.71875 171.925781 84.113281 171.984375 L 85.136719 172.210938 L 93.316406 174.035156 L 126.035156 181.335938 L 142.394531 184.984375 L 146.484375 185.898438 L 147.003906 186.015625 L 147.578125 186.171875 C 147.964844 186.273438 148.332031 186.441406 148.699219 186.589844 C 149.421875 186.933594 150.105469 187.359375 150.71875 187.875 C 151.929688 188.910156 152.875 190.269531 153.371094 191.789062 C 153.90625 193.300781 153.957031 194.957031 153.628906 196.515625 Z M 153.628906 196.515625 " fill-opacity="1" fill-rule="nonzero"/><path fill="#171717" d="M 59.5625 268.113281 C 51.109375 243.363281 32.320312 240.425781 31.523438 240.316406 L 32 236.847656 C 32.882812 236.96875 53.695312 240.105469 62.875 266.980469 Z M 59.5625 268.113281 " fill-opacity="1" fill-rule="nonzero"/><path fill="#171717" d="M 122.660156 276.042969 L 120.171875 273.578125 C 120.796875 272.949219 135.800781 258.179688 162.804688 266.964844 L 161.71875 270.292969 C 136.851562 262.207031 123.226562 275.472656 122.660156 276.042969 Z M 122.660156 276.042969 " fill-opacity="1" fill-rule="nonzero"/><path fill="#a6a6a6" d="M 39.546875 291.023438 C 33.425781 297.648438 23.664062 294.210938 13.800781 285.117188 C 12.539062 283.945312 11.328125 282.742188 10.214844 281.511719 C 5.082031 275.929688 1.574219 269.886719 1.429688 264.777344 C 1.351562 262.261719 2.089844 259.972656 3.847656 258.070312 C 7.195312 254.4375 12.585938 253.402344 18.398438 254.6875 C 23.214844 255.757812 28.304688 258.421875 32.769531 262.542969 C 34.078125 263.753906 35.261719 265.023438 36.328125 266.339844 C 43.273438 274.925781 44.847656 285.277344 39.546875 291.023438 Z M 39.546875 291.023438 " fill-opacity="1" fill-rule="nonzero"/><path fill="#c8c6c1" d="M 18.398438 254.691406 C 17.734375 254.839844 5.25 257.757812 1.429688 264.777344 C 1.351562 262.261719 2.089844 259.972656 3.847656 258.070312 C 7.195312 254.441406 12.585938 253.402344 18.398438 254.691406 Z M 18.398438 254.691406 " fill-opacity="1" fill-rule="nonzero"/><path fill="#004aad" d="M 39.546875 291.023438 C 33.425781 297.648438 23.664062 294.210938 13.800781 285.117188 C 12.539062 283.945312 11.328125 282.742188 10.214844 281.511719 C 15.417969 284.507812 21.238281 285.105469 24.597656 286.109375 C 34.609375 289.097656 36.328125 266.339844 36.328125 266.339844 C 43.273438 274.925781 44.847656 285.277344 39.546875 291.023438 Z M 39.546875 291.023438 " fill-opacity="1" fill-rule="nonzero"/><g clip-path="url(#12fdb1249f)"><path fill="#171717" d="M 38.285156 289.859375 C 39.816406 288.261719 40.777344 286.113281 41.050781 283.78125 C 41.351562 281.449219 41.046875 278.988281 40.382812 276.621094 C 39.023438 271.867188 36.207031 267.46875 32.621094 263.890625 C 29.046875 260.296875 24.644531 257.417969 19.789062 255.976562 C 17.371094 255.257812 14.835938 254.902344 12.363281 255.117188 C 9.898438 255.324219 7.5 256.152344 5.644531 257.679688 C 4.71875 258.449219 3.933594 259.359375 3.386719 260.382812 C 2.824219 261.402344 2.5625 262.558594 2.488281 263.730469 C 2.363281 266.09375 3.101562 268.519531 4.160156 270.761719 C 5.230469 273.015625 6.652344 275.132812 8.230469 277.121094 C 9.820312 279.101562 11.570312 280.972656 13.433594 282.71875 C 15.296875 284.472656 17.257812 286.113281 19.304688 287.59375 C 21.351562 289.066406 23.507812 290.371094 25.753906 291.308594 C 27.996094 292.230469 30.34375 292.765625 32.535156 292.625 C 34.722656 292.453125 36.703125 291.492188 38.285156 289.859375 Z M 40.804688 292.183594 L 40 292.96875 C 39.726562 293.226562 39.476562 293.503906 39.152344 293.714844 C 38.535156 294.164062 37.933594 294.632812 37.226562 294.953125 C 36.878906 295.117188 36.550781 295.335938 36.183594 295.449219 L 35.085938 295.820312 C 34.722656 295.960938 34.339844 295.988281 33.960938 296.066406 C 33.585938 296.121094 33.207031 296.214844 32.828125 296.230469 C 29.78125 296.445312 26.917969 295.628906 24.378906 294.484375 C 21.828125 293.332031 19.53125 291.824219 17.386719 290.183594 C 15.246094 288.527344 13.230469 286.753906 11.367188 284.835938 C 7.640625 281.003906 4.257812 276.738281 2.027344 271.730469 C 0.957031 269.230469 0.175781 266.464844 0.417969 263.582031 C 0.550781 262.15625 0.949219 260.71875 1.667969 259.449219 C 2.382812 258.175781 3.363281 257.097656 4.464844 256.21875 C 6.707031 254.460938 9.480469 253.542969 12.214844 253.339844 C 14.964844 253.128906 17.695312 253.523438 20.292969 254.269531 C 25.484375 255.808594 30.164062 258.703125 34.113281 262.351562 C 36.089844 264.179688 37.851562 266.242188 39.394531 268.480469 C 40.925781 270.71875 42.195312 273.171875 43.074219 275.792969 C 43.953125 278.410156 44.414062 281.238281 44.167969 284.117188 C 43.941406 286.980469 42.824219 289.921875 40.804688 292.183594 Z M 40.804688 292.183594 " fill-opacity="1" fill-rule="nonzero"/></g><path fill="#a6a6a6" d="M 175.957031 305.644531 C 173.109375 310.453125 166.164062 313.734375 157.011719 315.417969 C 143.816406 317.839844 131.039062 316.019531 129.40625 307.15625 C 128.273438 301 132.4375 294.710938 139.503906 290.628906 C 139.507812 290.625 139.507812 290.625 139.507812 290.625 C 142.625 288.824219 146.308594 287.445312 150.347656 286.707031 C 163.542969 284.28125 175.558594 289.503906 177.183594 298.371094 C 177.683594 301.085938 177.226562 303.519531 175.957031 305.644531 Z M 175.957031 305.644531 " fill-opacity="1" fill-rule="nonzero"/><path fill="#004aad" d="M 175.957031 305.644531 C 173.109375 310.453125 166.164062 313.734375 157.011719 315.417969 C 143.816406 317.839844 131.039062 316.019531 129.40625 307.15625 C 128.273438 301 132.4375 294.710938 139.503906 290.628906 C 139.378906 290.992188 134.171875 306.308594 152.066406 308.546875 C 162.597656 309.859375 170.871094 307.695312 175.957031 305.644531 Z M 175.957031 305.644531 " fill-opacity="1" fill-rule="nonzero"/><g clip-path="url(#069f508ded)"><path fill="#171717" d="M 176.035156 298.582031 C 175.648438 296.269531 174.429688 294.109375 172.65625 292.429688 C 170.902344 290.734375 168.691406 289.464844 166.335938 288.597656 C 161.59375 286.839844 156.308594 286.632812 151.308594 287.5 C 146.300781 288.375 141.414062 290.265625 137.449219 293.347656 C 135.476562 294.882812 133.738281 296.703125 132.488281 298.777344 C 131.234375 300.84375 130.53125 303.179688 130.648438 305.464844 C 130.71875 306.609375 130.972656 307.722656 131.4375 308.699219 C 131.894531 309.683594 132.609375 310.527344 133.453125 311.25 C 135.164062 312.695312 137.464844 313.558594 139.847656 314.0625 C 142.242188 314.566406 144.753906 314.742188 147.269531 314.707031 C 149.789062 314.664062 152.324219 314.445312 154.84375 314.066406 C 159.859375 313.285156 164.90625 312.132812 169.273438 309.804688 C 171.429688 308.636719 173.390625 307.132812 174.6875 305.207031 C 175.972656 303.28125 176.40625 300.933594 176.035156 298.582031 Z M 178.335938 298.160156 L 178.476562 299.230469 C 178.519531 299.585938 178.589844 299.941406 178.566406 300.308594 C 178.558594 301.035156 178.574219 301.769531 178.410156 302.492188 C 178.222656 303.957031 177.613281 305.335938 176.890625 306.601562 C 175.328125 309.078125 173.085938 310.929688 170.714844 312.34375 C 168.335938 313.765625 165.789062 314.773438 163.210938 315.582031 C 160.628906 316.386719 158.003906 316.996094 155.355469 317.40625 C 150.058594 318.214844 144.582031 318.460938 139.136719 317.265625 C 137.78125 316.945312 136.429688 316.523438 135.121094 315.9375 C 133.816406 315.34375 132.53125 314.605469 131.417969 313.59375 C 130.308594 312.589844 129.339844 311.347656 128.738281 309.9375 C 128.121094 308.527344 127.847656 307.03125 127.808594 305.566406 C 127.757812 302.601562 128.765625 299.753906 130.304688 297.414062 C 131.847656 295.058594 133.863281 293.113281 136.074219 291.511719 C 140.527344 288.34375 145.707031 286.4375 151.007812 285.636719 C 156.308594 284.855469 161.804688 285.132812 166.953125 286.875 C 169.511719 287.761719 171.988281 289.050781 174.070312 290.921875 C 176.160156 292.761719 177.765625 295.316406 178.335938 298.160156 Z M 178.335938 298.160156 " fill-opacity="1" fill-rule="nonzero"/></g><path fill="#171717" d="M 195.460938 169.761719 C 180.027344 160.980469 186.007812 140.929688 186.070312 140.726562 L 188.296875 141.414062 C 188.066406 142.164062 182.816406 159.882812 196.613281 167.738281 Z M 195.460938 169.761719 " fill-opacity="1" fill-rule="nonzero"/><path fill="#171717" d="M 51.179688 135.773438 L 50.890625 133.460938 C 64.355469 131.792969 70.839844 113.964844 70.902344 113.785156 L 73.097656 114.566406 C 72.820312 115.355469 66.078125 133.925781 51.179688 135.773438 Z M 51.179688 135.773438 " fill-opacity="1" fill-rule="nonzero"/><path fill="#004aad" d="M 96.238281 191.457031 C 96.238281 196.148438 92.4375 199.953125 87.75 199.953125 C 86.898438 199.953125 86.074219 199.828125 85.300781 199.59375 C 81.800781 198.542969 79.253906 195.292969 79.253906 191.453125 C 79.253906 187.183594 82.402344 183.660156 86.5 183.054688 C 86.902344 182.992188 87.324219 182.960938 87.75 182.960938 C 92.4375 182.960938 96.238281 186.761719 96.238281 191.457031 Z M 96.238281 191.457031 " fill-opacity="1" fill-rule="nonzero"/><path fill="#a6a6a6" d="M 96.238281 191.457031 C 96.238281 196.148438 92.4375 199.953125 87.75 199.953125 C 86.898438 199.953125 86.074219 199.828125 85.300781 199.59375 C 91.699219 193.632812 88.308594 186.085938 86.5 183.054688 C 86.902344 182.992188 87.324219 182.960938 87.75 182.960938 C 92.4375 182.960938 96.238281 186.761719 96.238281 191.457031 Z M 96.238281 191.457031 " fill-opacity="1" fill-rule="nonzero"/><path fill="#171717" d="M 87.746094 183.84375 C 83.546875 183.84375 80.132812 187.257812 80.132812 191.457031 C 80.132812 195.652344 83.550781 199.066406 87.746094 199.066406 C 91.945312 199.066406 95.359375 195.652344 95.359375 191.457031 C 95.359375 187.257812 91.945312 183.84375 87.746094 183.84375 Z M 87.746094 200.828125 C 82.578125 200.828125 78.371094 196.625 78.371094 191.457031 C 78.371094 186.285156 82.578125 182.082031 87.746094 182.082031 C 92.917969 182.082031 97.121094 186.285156 97.121094 191.457031 C 97.121094 196.625 92.914062 200.828125 87.746094 200.828125 Z M 87.746094 200.828125 " fill-opacity="1" fill-rule="nonzero"/><path fill="#a6a6a6" d="M 61.496094 52.75 L 68.828125 18.140625 L 72.851562 18.773438 L 68.257812 49.707031 Z M 61.496094 52.75 " fill-opacity="1" fill-rule="nonzero"/><path fill="#171717" d="M 69.515625 19.140625 L 62.722656 51.234375 L 67.460938 49.101562 L 71.855469 19.507812 Z M 60.277344 54.265625 L 68.140625 17.140625 L 73.851562 18.039062 L 69.058594 50.3125 Z M 60.277344 54.265625 " fill-opacity="1" fill-rule="nonzero"/><path fill="#a6a6a6" d="M 68.039062 106.277344 C 68.039062 106.277344 67.082031 105.917969 65.660156 105.300781 C 62.75 104.035156 57.914062 101.679688 55.421875 99.078125 C 51.710938 95.195312 53.660156 64.191406 55.324219 58.757812 C 56.289062 55.589844 62.191406 52.097656 66.933594 49.742188 C 70.320312 48.058594 73.117188 46.953125 73.117188 46.953125 Z M 68.039062 106.277344 " fill-opacity="1" fill-rule="nonzero"/><path fill="#004aad" d="M 68.039062 106.277344 C 68.039062 106.277344 67.082031 105.917969 65.660156 105.300781 C 52.476562 89.769531 64.921875 52.015625 64.921875 52.015625 L 66.933594 49.738281 C 70.316406 48.058594 73.117188 46.949219 73.117188 46.949219 Z M 68.039062 106.277344 " fill-opacity="1" fill-rule="nonzero"/><path fill="#171717" d="M 73.441406 47.769531 C 70.550781 49.046875 67.664062 50.449219 64.921875 52.015625 C 63.550781 52.796875 62.214844 53.640625 60.9375 54.523438 C 59.675781 55.414062 58.460938 56.382812 57.527344 57.460938 C 57.074219 58 56.703125 58.574219 56.546875 59.082031 C 56.359375 59.703125 56.226562 60.503906 56.101562 61.257812 C 55.867188 62.800781 55.699219 64.378906 55.554688 65.964844 C 55.25 69.128906 55.046875 72.320312 54.914062 75.507812 C 54.777344 78.695312 54.699219 81.886719 54.742188 85.066406 C 54.792969 88.238281 54.890625 91.429688 55.328125 94.476562 C 55.386719 94.851562 55.4375 95.234375 55.519531 95.59375 L 55.628906 96.144531 L 55.765625 96.664062 C 55.808594 96.84375 55.863281 97.003906 55.921875 97.15625 C 55.980469 97.304688 56.023438 97.496094 56.09375 97.605469 C 56.15625 97.71875 56.214844 97.890625 56.277344 97.964844 C 56.308594 98 56.332031 98.039062 56.359375 98.082031 L 56.390625 98.144531 L 56.488281 98.238281 C 57.46875 99.269531 58.722656 100.179688 60.011719 101.027344 C 62.617188 102.703125 65.476562 104.160156 68.34375 105.449219 L 67.730469 107.097656 C 66.152344 106.589844 64.652344 105.992188 63.144531 105.339844 C 61.640625 104.695312 60.164062 103.96875 58.722656 103.136719 C 57.28125 102.296875 55.875 101.359375 54.578125 100.113281 L 54.457031 100 L 54.308594 99.820312 L 54.027344 99.453125 C 53.847656 99.207031 53.769531 98.992188 53.636719 98.757812 C 53.503906 98.519531 53.453125 98.3125 53.359375 98.089844 C 53.273438 97.867188 53.195312 97.648438 53.140625 97.4375 L 52.957031 96.796875 L 52.8125 96.164062 C 52.710938 95.742188 52.644531 95.328125 52.566406 94.914062 C 52.285156 93.253906 52.152344 91.613281 52.046875 89.980469 C 51.941406 88.347656 51.890625 86.71875 51.882812 85.09375 C 51.859375 81.84375 51.941406 78.605469 52.105469 75.371094 C 52.277344 72.136719 52.523438 68.910156 52.875 65.683594 C 53.0625 64.066406 53.273438 62.453125 53.558594 60.824219 C 53.71875 59.996094 53.851562 59.207031 54.148438 58.296875 C 54.503906 57.277344 55.082031 56.511719 55.671875 55.832031 C 56.882812 54.507812 58.238281 53.503906 59.617188 52.574219 C 60.996094 51.652344 62.433594 50.84375 63.882812 50.089844 C 66.789062 48.585938 69.738281 47.269531 72.800781 46.121094 Z M 73.441406 47.769531 " fill-opacity="1" fill-rule="nonzero"/><path fill="#a6a6a6" d="M 224.757812 82.484375 L 230.101562 47.511719 L 226.113281 46.6875 L 219.503906 77.253906 Z M 224.757812 82.484375 " fill-opacity="1" fill-rule="nonzero"/><path fill="#171717" d="M 220.46875 76.96875 L 224.148438 80.636719 L 229.105469 48.207031 L 226.789062 47.726562 Z M 225.367188 84.335938 L 218.542969 77.539062 L 225.4375 45.648438 L 231.101562 46.820312 Z M 225.367188 84.335938 " fill-opacity="1" fill-rule="nonzero"/><path fill="#a6a6a6" d="M 214.109375 127.980469 C 212.089844 128.949219 209.253906 129.507812 206.632812 129.828125 C 202.988281 130.277344 199.765625 130.269531 199.765625 130.269531 L 215.929688 72.960938 C 215.929688 72.960938 218.707031 75.476562 221.640625 78.75 C 225.023438 82.507812 228.609375 87.25 228.417969 90.28125 C 228.0625 95.953125 218.949219 125.65625 214.109375 127.980469 Z M 214.109375 127.980469 " fill-opacity="1" fill-rule="nonzero"/><path fill="#004aad" d="M 206.632812 129.828125 C 202.988281 130.277344 199.765625 130.269531 199.765625 130.269531 L 215.929688 72.960938 C 215.929688 72.960938 218.707031 75.476562 221.640625 78.75 C 221.398438 85.011719 219.617188 112.324219 206.632812 129.828125 Z M 206.632812 129.828125 " fill-opacity="1" fill-rule="nonzero"/><path fill="#171717" d="M 199.765625 131.152344 L 199.769531 129.386719 C 199.867188 129.386719 209.132812 129.390625 213.726562 127.183594 C 217.855469 125.207031 227.136719 96.566406 227.539062 90.230469 C 227.8125 85.929688 218.824219 76.773438 215.335938 73.609375 L 216.519531 72.304688 C 217.867188 73.527344 229.675781 84.417969 229.300781 90.339844 C 228.953125 95.816406 219.882812 126.1875 214.492188 128.773438 C 209.53125 131.15625 200.164062 131.152344 199.765625 131.152344 Z M 199.765625 131.152344 " fill-opacity="1" fill-rule="nonzero"/><path fill="#a6a6a6" d="M 199.789062 130.207031 C 199.125 130.96875 198.449219 131.710938 197.738281 132.433594 C 196.179688 134.054688 194.507812 135.578125 192.746094 137.011719 C 188.988281 140.050781 184.808594 142.664062 180.199219 144.8125 C 166.4375 151.230469 148.925781 153.476562 128.027344 150.507812 C 107.425781 145.921875 91.828125 137.640625 81.21875 126.785156 C 77.664062 123.148438 74.667969 119.226562 72.226562 115.058594 C 72.0625 114.785156 71.90625 114.503906 71.75 114.226562 C 59.433594 92.359375 62.78125 63.84375 78.59375 33.679688 C 83.25 24.8125 89.613281 18.078125 97.070312 13.183594 C 113.308594 2.519531 134.703125 0.546875 154.691406 4.09375 C 171.210938 7.183594 187.300781 14.144531 198.84375 25.375 C 207.644531 33.917969 213.800781 44.949219 215.484375 58.613281 C 216.121094 63.75 216.488281 68.746094 216.601562 73.589844 C 217.171875 96.855469 211.71875 116.472656 199.789062 130.207031 Z M 199.789062 130.207031 " fill-opacity="1" fill-rule="nonzero"/><path fill="#c8c6c1" d="M 198.84375 25.375 C 190.003906 19.871094 175.425781 13.085938 152.230469 9.003906 C 130.078125 5.105469 110.429688 8.894531 97.074219 13.183594 C 113.3125 2.519531 134.703125 0.546875 154.695312 4.09375 C 171.214844 7.1875 187.304688 14.144531 198.84375 25.375 Z M 198.84375 25.375 " fill-opacity="1" fill-rule="nonzero"/><path fill="#004aad" d="M 197.738281 132.433594 C 196.179688 134.054688 194.507812 135.578125 192.746094 137.011719 C 188.988281 140.050781 184.808594 142.664062 180.199219 144.8125 C 166.4375 151.230469 148.925781 153.476562 128.027344 150.507812 C 107.425781 145.921875 91.828125 137.640625 81.21875 126.785156 C 77.664062 123.148438 74.667969 119.226562 72.226562 115.058594 C 72.0625 114.785156 71.90625 114.503906 71.75 114.226562 C 68.992188 102.636719 67.644531 80.90625 79.003906 59.109375 C 97.878906 22.894531 116.527344 16.828125 151.28125 23.15625 C 182.886719 28.914062 210.855469 51.359375 205.078125 101.109375 C 203.648438 113.449219 200.972656 123.820312 197.738281 132.433594 Z M 197.738281 132.433594 " fill-opacity="1" fill-rule="nonzero"/><path fill="#171717" d="M 198.8125 129.359375 C 204.191406 123.121094 208.097656 115.695312 210.695312 107.859375 C 212.019531 103.941406 212.960938 99.898438 213.667969 95.8125 C 214.367188 91.730469 214.839844 87.59375 215.027344 83.441406 C 215.460938 75.140625 215.027344 66.777344 213.972656 58.515625 C 212.921875 50.378906 210.0625 42.503906 205.515625 35.691406 C 203.242188 32.285156 200.585938 29.132812 197.636719 26.273438 C 194.683594 23.417969 191.425781 20.871094 187.988281 18.59375 C 181.105469 14.035156 173.441406 10.675781 165.519531 8.246094 C 161.554688 7.03125 157.503906 6.070312 153.429688 5.363281 C 149.34375 4.679688 145.203125 4.226562 141.0625 4.03125 C 132.785156 3.664062 124.441406 4.324219 116.441406 6.351562 C 112.445312 7.375 108.542969 8.742188 104.816406 10.480469 C 101.085938 12.210938 97.574219 14.375 94.328125 16.878906 C 91.085938 19.386719 88.132812 22.269531 85.578125 25.480469 C 83.007812 28.691406 80.847656 32.167969 79 35.898438 C 75.191406 43.320312 71.945312 51.039062 69.574219 59.015625 L 68.691406 62.007812 L 67.96875 65.039062 L 67.605469 66.554688 L 67.421875 67.3125 L 67.28125 68.074219 L 66.730469 71.140625 C 66.640625 71.648438 66.539062 72.160156 66.457031 72.671875 L 66.273438 74.214844 L 65.902344 77.300781 C 65.792969 78.332031 65.773438 79.367188 65.703125 80.398438 L 65.617188 81.949219 L 65.570312 82.722656 L 65.578125 83.5 C 65.621094 85.566406 65.558594 87.636719 65.792969 89.691406 C 65.890625 90.71875 65.9375 91.75 66.0625 92.773438 C 66.222656 93.792969 66.375 94.8125 66.519531 95.835938 C 66.597656 96.347656 66.648438 96.863281 66.753906 97.367188 L 67.082031 98.878906 C 67.304688 99.882812 67.5 100.902344 67.75 101.902344 L 68.652344 104.867188 C 68.808594 105.359375 68.9375 105.863281 69.117188 106.347656 L 69.699219 107.789062 C 70.097656 108.738281 70.464844 109.710938 70.898438 110.648438 L 72.347656 113.398438 C 72.59375 113.855469 72.824219 114.316406 73.082031 114.765625 C 73.34375 115.210938 73.617188 115.65625 73.890625 116.09375 C 74.445312 116.96875 75.019531 117.832031 75.617188 118.675781 C 78.007812 122.0625 80.761719 125.191406 83.792969 128.027344 C 89.855469 133.707031 96.976562 138.199219 104.527344 141.703125 C 112.089844 145.207031 120.109375 147.6875 128.257812 149.519531 L 128.179688 149.503906 C 134.554688 150.371094 140.992188 150.839844 147.410156 150.699219 C 150.621094 150.652344 153.820312 150.390625 157 150.035156 C 160.183594 149.648438 163.332031 149.074219 166.441406 148.339844 C 169.550781 147.605469 172.59375 146.628906 175.566406 145.484375 C 178.535156 144.332031 181.425781 142.984375 184.175781 141.390625 C 189.683594 138.214844 194.679688 134.164062 198.8125 129.359375 Z M 200.765625 131.058594 C 196.40625 136.0625 191.144531 140.261719 185.390625 143.511719 C 182.519531 145.152344 179.503906 146.53125 176.421875 147.699219 C 173.332031 148.863281 170.179688 149.851562 166.972656 150.582031 C 163.765625 151.316406 160.523438 151.882812 157.261719 152.253906 C 153.996094 152.601562 150.722656 152.839844 147.445312 152.867188 C 140.890625 152.96875 134.355469 152.429688 127.886719 151.527344 L 127.808594 151.511719 C 119.550781 149.621094 111.410156 147.066406 103.707031 143.460938 C 96.015625 139.855469 88.738281 135.226562 82.527344 129.359375 C 79.425781 126.433594 76.601562 123.199219 74.152344 119.699219 C 73.539062 118.824219 72.949219 117.933594 72.382812 117.027344 C 72.101562 116.574219 71.824219 116.117188 71.558594 115.660156 C 71.292969 115.195312 71.054688 114.714844 70.800781 114.246094 L 69.292969 111.417969 C 68.84375 110.449219 68.425781 109.464844 67.988281 108.488281 L 67.332031 107.023438 C 67.125 106.53125 66.964844 106.019531 66.777344 105.515625 L 65.699219 102.488281 C 65.394531 101.464844 65.136719 100.421875 64.851562 99.390625 L 64.4375 97.832031 C 64.300781 97.3125 64.238281 96.78125 64.136719 96.253906 C 63.945312 95.199219 63.765625 94.144531 63.589844 93.085938 C 63.441406 92.023438 63.382812 90.953125 63.28125 89.886719 C 63.03125 87.75 63.085938 85.609375 63.039062 83.46875 L 63.027344 82.664062 L 63.15625 80.261719 C 63.222656 79.195312 63.242188 78.125 63.351562 77.0625 L 63.722656 73.882812 L 63.910156 72.292969 C 63.992188 71.765625 64.09375 71.242188 64.183594 70.714844 L 64.742188 67.566406 L 64.886719 66.777344 L 66.171875 61.335938 L 67.0625 58.269531 C 69.464844 50.101562 72.75 42.230469 76.59375 34.667969 C 80.332031 26.988281 85.777344 19.945312 92.621094 14.683594 C 96.027344 12.035156 99.71875 9.753906 103.613281 7.925781 C 107.511719 6.089844 111.578125 4.65625 115.734375 3.578125 C 124.054688 1.457031 132.671875 0.769531 141.199219 1.136719 C 145.464844 1.335938 149.707031 1.792969 153.921875 2.492188 C 158.136719 3.21875 162.289062 4.203125 166.375 5.445312 C 174.53125 7.9375 182.449219 11.390625 189.621094 16.125 C 193.199219 18.488281 196.601562 21.140625 199.707031 24.132812 C 202.800781 27.128906 205.601562 30.441406 208.007812 34.035156 C 212.828125 41.21875 215.832031 49.589844 216.914062 58.140625 C 217.980469 66.574219 218.359375 75.089844 217.875 83.597656 C 217.664062 87.851562 217.164062 92.09375 216.414062 96.296875 C 215.664062 100.5 214.671875 104.667969 213.28125 108.722656 C 210.542969 116.824219 206.429688 124.554688 200.765625 131.058594 Z M 200.765625 131.058594 " fill-opacity="1" fill-rule="nonzero"/><path fill="#171717" d="M 202.683594 107.242188 C 199.882812 122.601562 191.636719 135.632812 180.203125 144.816406 C 166.441406 151.234375 148.929688 153.480469 128.03125 150.511719 C 107.425781 145.921875 91.832031 137.644531 81.214844 126.789062 C 73.753906 114.164062 70.632812 99.0625 73.429688 83.699219 C 79.742188 49.046875 113.789062 26.230469 149.480469 32.734375 C 185.171875 39.234375 208.992188 72.589844 202.683594 107.242188 Z M 202.683594 107.242188 " fill-opacity="1" fill-rule="nonzero"/><path fill="#c8c6c1" d="M 82.417969 95.460938 C 80.351562 95.613281 82.488281 111.832031 92.355469 124.394531 C 103.488281 138.578125 123.054688 142.527344 123.765625 139.957031 C 124.804688 136.21875 110.585938 135.710938 97.785156 123.242188 C 86.898438 112.636719 84.699219 95.289062 82.417969 95.460938 Z M 82.417969 95.460938 " fill-opacity="1" fill-rule="nonzero"/><path fill="#c8c6c1" d="M 194.429688 85.378906 C 195.898438 85.089844 195.84375 79.035156 193.414062 72.796875 C 190.847656 66.1875 184.988281 61.457031 183.78125 62.222656 C 182.925781 62.761719 184.257812 64.613281 187.554688 71.261719 C 192.191406 80.597656 193.089844 85.640625 194.429688 85.378906 Z M 194.429688 85.378906 " fill-opacity="1" fill-rule="nonzero"/><path fill="#c8c6c1" d="M 181.097656 57.453125 C 180.113281 55.492188 176.6875 55.191406 176.101562 56.09375 C 175.789062 56.574219 176.296875 57.40625 176.515625 57.761719 C 177.609375 59.546875 180.246094 60.464844 181.09375 59.664062 C 181.605469 59.179688 181.421875 58.105469 181.097656 57.453125 Z M 181.097656 57.453125 " fill-opacity="1" fill-rule="nonzero"/></g></g></g></svg>