<svg xmlns="http://www.w3.org/2000/svg" xmlns:xlink="http://www.w3.org/1999/xlink" width="500" zoomAndPan="magnify" viewBox="0 0 375 374.999991" height="500" preserveAspectRatio="xMidYMid meet" version="1.0"><defs><g/></defs><g fill="#282929" fill-opacity="1"><g transform="translate(88.135194, 174.711682)"><g><path d="M 3.421875 -46.953125 L 17.015625 -46.953125 C 23.535156 -46.953125 29.109375 -44.722656 33.734375 -40.265625 C 38.367188 -35.804688 40.6875 -30.21875 40.6875 -23.5 C 40.6875 -16.75 38.378906 -11.144531 33.765625 -6.6875 C 29.160156 -2.226562 23.578125 0 17.015625 0 L 3.421875 0 Z M 14.109375 -9.5625 L 15.765625 -9.5625 C 19.671875 -9.5625 22.863281 -10.878906 25.34375 -13.515625 C 27.832031 -16.148438 29.097656 -19.460938 29.140625 -23.453125 C 29.140625 -27.429688 27.894531 -30.75 25.40625 -33.40625 C 22.925781 -36.0625 19.710938 -37.390625 15.765625 -37.390625 L 14.109375 -37.390625 Z M 14.109375 -9.5625 "/></g></g></g><g fill="#282929" fill-opacity="1"><g transform="translate(126.261802, 174.711682)"><g><path d="M 3.421875 -46.953125 L 20.203125 -46.953125 C 24.710938 -46.953125 28.390625 -45.742188 31.234375 -43.328125 C 34.085938 -40.921875 35.515625 -37.476562 35.515625 -33 C 35.515625 -29.550781 34.648438 -26.660156 32.921875 -24.328125 C 31.191406 -21.992188 28.847656 -20.351562 25.890625 -19.40625 L 42.046875 0 L 28.453125 0 L 14.109375 -18.546875 L 14.109375 0 L 3.421875 0 Z M 14.109375 -26.125 L 15.359375 -26.125 C 16.347656 -26.125 17.179688 -26.140625 17.859375 -26.171875 C 18.546875 -26.210938 19.328125 -26.347656 20.203125 -26.578125 C 21.078125 -26.804688 21.78125 -27.128906 22.3125 -27.546875 C 22.84375 -27.960938 23.296875 -28.566406 23.671875 -29.359375 C 24.046875 -30.160156 24.234375 -31.128906 24.234375 -32.265625 C 24.234375 -33.398438 24.046875 -34.363281 23.671875 -35.15625 C 23.296875 -35.957031 22.84375 -36.566406 22.3125 -36.984375 C 21.78125 -37.398438 21.078125 -37.722656 20.203125 -37.953125 C 19.328125 -38.179688 18.546875 -38.3125 17.859375 -38.34375 C 17.179688 -38.382812 16.347656 -38.40625 15.359375 -38.40625 L 14.109375 -38.40625 Z M 14.109375 -26.125 "/></g></g></g><g fill="#282929" fill-opacity="1"><g transform="translate(163.136471, 174.711682)"><g><path d="M 30.28125 -46.953125 L 30.28125 -37.5625 L 14.109375 -37.5625 L 14.109375 -28.21875 L 29.59375 -28.21875 L 29.59375 -18.84375 L 14.109375 -18.84375 L 14.109375 -9.390625 L 30.28125 -9.390625 L 30.28125 0 L 3.421875 0 L 3.421875 -46.953125 Z M 30.28125 -46.953125 "/></g></g></g><g fill="#282929" fill-opacity="1"><g transform="translate(192.27188, 174.711682)"><g><path d="M 27.265625 -46.953125 L 46.203125 0 L 34.71875 0 L 31.234375 -9.390625 L 13.375 -9.390625 L 9.90625 0 L -1.59375 0 L 17.359375 -46.953125 Z M 27.59375 -18.78125 L 22.359375 -32.4375 L 22.25 -32.4375 L 17.015625 -18.78125 Z M 27.59375 -18.78125 "/></g></g></g><g fill="#282929" fill-opacity="1"><g transform="translate(233.016174, 174.711682)"><g><path d="M 42.21875 0 L 40 -27.828125 L 39.71875 -27.828125 L 30.109375 -0.28125 L 23.734375 -0.28125 L 14.109375 -27.828125 L 13.828125 -27.828125 L 11.609375 0 L 0.90625 0 L 5.125 -46.953125 L 16.5 -46.953125 L 26.921875 -19.859375 L 37.328125 -46.953125 L 48.71875 -46.953125 L 52.921875 0 Z M 42.21875 0 "/></g></g></g><g fill="#282929" fill-opacity="1"><g transform="translate(152.57552, 185.404689)"><g><path d="M 2.351562 -4.976562 L 5.417969 -4.976562 L 5.417969 -6.242188 L 0.722656 -6.242188 L 0.722656 0 L 2.351562 0 L 2.351562 -2.496094 L 5.148438 -2.496094 L 5.148438 -3.761719 L 2.351562 -3.761719 Z M 2.351562 -4.976562 "/></g></g></g><g fill="#282929" fill-opacity="1"><g transform="translate(158.629705, 185.404689)"><g><path d="M 4.234375 -1.617188 L 4.757812 0 L 6.53125 0 L 4.277344 -6.242188 L 2.289062 -6.242188 L 0.0351562 0 L 1.765625 0 L 2.289062 -1.617188 Z M 3.265625 -4.804688 L 3.84375 -2.886719 L 2.6875 -2.886719 Z M 3.265625 -4.804688 "/></g></g></g><g fill="#282929" fill-opacity="1"><g transform="translate(165.515119, 185.404689)"><g><path d="M 2.914062 -6.367188 C 1.671875 -6.367188 0.550781 -5.6875 0.550781 -4.484375 C 0.550781 -3.238281 1.382812 -2.792969 2.804688 -2.441406 C 3.574219 -2.253906 3.808594 -1.972656 3.808594 -1.644531 C 3.808594 -1.300781 3.464844 -1.066406 3.011719 -1.066406 C 2.523438 -1.066406 2.042969 -1.320312 1.9375 -1.910156 L 0.308594 -1.910156 C 0.40625 -0.507812 1.472656 0.125 3.058594 0.125 C 4.316406 0.125 5.507812 -0.507812 5.507812 -1.753906 C 5.507812 -2.714844 4.949219 -3.402344 3.574219 -3.726562 C 2.542969 -3.972656 2.253906 -4.214844 2.253906 -4.613281 C 2.253906 -4.992188 2.503906 -5.171875 2.875 -5.171875 C 3.410156 -5.171875 3.679688 -4.828125 3.753906 -4.316406 L 5.382812 -4.316406 C 5.246094 -5.472656 4.558594 -6.367188 2.914062 -6.367188 Z M 2.914062 -6.367188 "/></g></g></g><g fill="#282929" fill-opacity="1"><g transform="translate(171.668684, 185.404689)"><g><path d="M 6.476562 -6.242188 L 4.847656 -6.242188 L 4.847656 -3.691406 L 2.351562 -3.691406 L 2.351562 -6.242188 L 0.722656 -6.242188 L 0.722656 0 L 2.351562 0 L 2.351562 -2.425781 L 4.847656 -2.425781 L 4.847656 0 L 6.476562 0 Z M 6.476562 -6.242188 "/></g></g></g><g fill="#282929" fill-opacity="1"><g transform="translate(179.123305, 185.404689)"><g><path d="M 2.351562 0 L 2.351562 -6.242188 L 0.722656 -6.242188 L 0.722656 0 Z M 2.351562 0 "/></g></g></g><g fill="#282929" fill-opacity="1"><g transform="translate(182.457916, 185.404689)"><g><path d="M 3.679688 -6.367188 C 1.738281 -6.367188 0.488281 -5.128906 0.488281 -3.121094 C 0.488281 -1.121094 1.738281 0.125 3.679688 0.125 C 5.625 0.125 6.875 -1.121094 6.875 -3.121094 C 6.875 -5.128906 5.625 -6.367188 3.679688 -6.367188 Z M 3.679688 -1.066406 C 2.742188 -1.066406 2.152344 -1.800781 2.152344 -3.121094 C 2.152344 -4.449219 2.742188 -5.171875 3.679688 -5.171875 C 4.621094 -5.171875 5.210938 -4.449219 5.210938 -3.121094 C 5.210938 -1.800781 4.621094 -1.066406 3.679688 -1.066406 Z M 3.679688 -1.066406 "/></g></g></g><g fill="#282929" fill-opacity="1"><g transform="translate(190.075168, 185.404689)"><g><path d="M 6.691406 0 L 6.691406 -6.242188 L 5.066406 -6.242188 L 5.066406 -3.574219 C 5.066406 -3.210938 5.074219 -2.570312 5.121094 -1.9375 L 2.75 -6.242188 L 0.722656 -6.242188 L 0.722656 0 L 2.351562 0 L 2.351562 -2.578125 C 2.351562 -2.941406 2.351562 -3.492188 2.296875 -4.125 L 4.566406 0 Z M 6.691406 0 "/></g></g></g><g fill="#282929" fill-opacity="1"><g transform="translate(197.746632, 185.404689)"><g><path d="M 1.472656 -3.972656 L 1.617188 -6.648438 L 0.261719 -6.648438 L 0.40625 -3.972656 Z M 1.472656 -3.972656 "/></g></g></g><g fill="#282929" fill-opacity="1"><g transform="translate(200.231942, 185.404689)"><g><path d="M 2.914062 -6.367188 C 1.671875 -6.367188 0.550781 -5.6875 0.550781 -4.484375 C 0.550781 -3.238281 1.382812 -2.792969 2.804688 -2.441406 C 3.574219 -2.253906 3.808594 -1.972656 3.808594 -1.644531 C 3.808594 -1.300781 3.464844 -1.066406 3.011719 -1.066406 C 2.523438 -1.066406 2.042969 -1.320312 1.9375 -1.910156 L 0.308594 -1.910156 C 0.40625 -0.507812 1.472656 0.125 3.058594 0.125 C 4.316406 0.125 5.507812 -0.507812 5.507812 -1.753906 C 5.507812 -2.714844 4.949219 -3.402344 3.574219 -3.726562 C 2.542969 -3.972656 2.253906 -4.214844 2.253906 -4.613281 C 2.253906 -4.992188 2.503906 -5.171875 2.875 -5.171875 C 3.410156 -5.171875 3.679688 -4.828125 3.753906 -4.316406 L 5.382812 -4.316406 C 5.246094 -5.472656 4.558594 -6.367188 2.914062 -6.367188 Z M 2.914062 -6.367188 "/></g></g></g><g fill="#282929" fill-opacity="1"><g transform="translate(206.38551, 185.404689)"><g/></g></g><g fill="#282929" fill-opacity="1"><g transform="translate(208.473279, 185.404689)"><g><path d="M 2.914062 -6.367188 C 1.671875 -6.367188 0.550781 -5.6875 0.550781 -4.484375 C 0.550781 -3.238281 1.382812 -2.792969 2.804688 -2.441406 C 3.574219 -2.253906 3.808594 -1.972656 3.808594 -1.644531 C 3.808594 -1.300781 3.464844 -1.066406 3.011719 -1.066406 C 2.523438 -1.066406 2.042969 -1.320312 1.9375 -1.910156 L 0.308594 -1.910156 C 0.40625 -0.507812 1.472656 0.125 3.058594 0.125 C 4.316406 0.125 5.507812 -0.507812 5.507812 -1.753906 C 5.507812 -2.714844 4.949219 -3.402344 3.574219 -3.726562 C 2.542969 -3.972656 2.253906 -4.214844 2.253906 -4.613281 C 2.253906 -4.992188 2.503906 -5.171875 2.875 -5.171875 C 3.410156 -5.171875 3.679688 -4.828125 3.753906 -4.316406 L 5.382812 -4.316406 C 5.246094 -5.472656 4.558594 -6.367188 2.914062 -6.367188 Z M 2.914062 -6.367188 "/></g></g></g><g fill="#282929" fill-opacity="1"><g transform="translate(214.626846, 185.404689)"><g><path d="M 5.808594 -4.976562 L 5.808594 -6.242188 L 0.125 -6.242188 L 0.125 -4.976562 L 2.152344 -4.976562 L 2.152344 0 L 3.78125 0 L 3.78125 -4.976562 Z M 5.808594 -4.976562 "/></g></g></g><g fill="#282929" fill-opacity="1"><g transform="translate(220.834625, 185.404689)"><g><path d="M 3.679688 -6.367188 C 1.738281 -6.367188 0.488281 -5.128906 0.488281 -3.121094 C 0.488281 -1.121094 1.738281 0.125 3.679688 0.125 C 5.625 0.125 6.875 -1.121094 6.875 -3.121094 C 6.875 -5.128906 5.625 -6.367188 3.679688 -6.367188 Z M 3.679688 -1.066406 C 2.742188 -1.066406 2.152344 -1.800781 2.152344 -3.121094 C 2.152344 -4.449219 2.742188 -5.171875 3.679688 -5.171875 C 4.621094 -5.171875 5.210938 -4.449219 5.210938 -3.121094 C 5.210938 -1.800781 4.621094 -1.066406 3.679688 -1.066406 Z M 3.679688 -1.066406 "/></g></g></g><g fill="#282929" fill-opacity="1"><g transform="translate(228.451881, 185.404689)"><g><path d="M 5.589844 -1.519531 C 5.5 -2.269531 5.265625 -2.75 4.613281 -2.984375 C 5.445312 -3.230469 5.871094 -3.753906 5.871094 -4.539062 C 5.871094 -5.644531 5.082031 -6.085938 4.179688 -6.195312 C 3.84375 -6.230469 3.589844 -6.242188 3.203125 -6.242188 L 0.722656 -6.242188 L 0.722656 0 L 2.351562 0 L 2.351562 -2.371094 L 2.714844 -2.371094 C 2.894531 -2.371094 3.046875 -2.371094 3.230469 -2.359375 C 3.644531 -2.332031 3.917969 -1.9375 3.996094 -1.25 C 4.050781 -0.804688 4.144531 -0.441406 4.289062 0 L 6.058594 0 C 5.816406 -0.371094 5.671875 -0.8125 5.589844 -1.519531 Z M 2.351562 -3.546875 L 2.351562 -4.976562 L 2.984375 -4.976562 C 3.15625 -4.976562 3.300781 -4.976562 3.417969 -4.964844 C 3.835938 -4.929688 4.167969 -4.785156 4.167969 -4.261719 C 4.167969 -3.734375 3.789062 -3.589844 3.375 -3.554688 C 3.257812 -3.546875 3.113281 -3.546875 2.941406 -3.546875 Z M 2.351562 -3.546875 "/></g></g></g><g fill="#282929" fill-opacity="1"><g transform="translate(235.111415, 185.404689)"><g><path d="M 5.507812 -1.265625 L 2.351562 -1.265625 L 2.351562 -2.496094 L 5.238281 -2.496094 L 5.238281 -3.761719 L 2.351562 -3.761719 L 2.351562 -4.976562 L 5.417969 -4.976562 L 5.417969 -6.242188 L 0.722656 -6.242188 L 0.722656 0 L 5.507812 0 Z M 5.507812 -1.265625 "/></g></g></g><g fill="#282929" fill-opacity="1"><g transform="translate(174.427874, 193.546319)"><g><path d="M 4.285156 -0.984375 L 1.828125 -0.984375 L 1.828125 -1.941406 L 4.074219 -1.941406 L 4.074219 -2.925781 L 1.828125 -2.925781 L 1.828125 -3.871094 L 4.214844 -3.871094 L 4.214844 -4.855469 L 0.5625 -4.855469 L 0.5625 0 L 4.285156 0 Z M 4.285156 -0.984375 "/></g></g></g><g fill="#282929" fill-opacity="1"><g transform="translate(179.307905, 193.546319)"><g><path d="M 2.265625 -4.953125 C 1.300781 -4.953125 0.429688 -4.425781 0.429688 -3.488281 C 0.429688 -2.519531 1.078125 -2.171875 2.179688 -1.898438 C 2.777344 -1.75 2.960938 -1.535156 2.960938 -1.28125 C 2.960938 -1.011719 2.695312 -0.832031 2.34375 -0.832031 C 1.960938 -0.832031 1.589844 -1.027344 1.503906 -1.484375 L 0.238281 -1.484375 C 0.316406 -0.394531 1.148438 0.0976562 2.378906 0.0976562 C 3.355469 0.0976562 4.285156 -0.394531 4.285156 -1.363281 C 4.285156 -2.109375 3.847656 -2.644531 2.777344 -2.898438 C 1.976562 -3.089844 1.75 -3.277344 1.75 -3.585938 C 1.75 -3.882812 1.949219 -4.023438 2.238281 -4.023438 C 2.652344 -4.023438 2.863281 -3.757812 2.917969 -3.355469 L 4.1875 -3.355469 C 4.082031 -4.257812 3.546875 -4.953125 2.265625 -4.953125 Z M 2.265625 -4.953125 "/></g></g></g><g fill="#282929" fill-opacity="1"><g transform="translate(184.096521, 193.546319)"><g><path d="M 4.515625 -3.871094 L 4.515625 -4.855469 L 0.0976562 -4.855469 L 0.0976562 -3.871094 L 1.675781 -3.871094 L 1.675781 0 L 2.941406 0 L 2.941406 -3.871094 Z M 4.515625 -3.871094 "/></g></g></g><g fill="#282929" fill-opacity="1"><g transform="translate(188.927331, 193.546319)"><g><path d="M 1.148438 -3.089844 L 1.257812 -5.171875 L 0.203125 -5.171875 L 0.316406 -3.089844 Z M 1.148438 -3.089844 "/></g></g></g><g fill="#282929" fill-opacity="1"><g transform="translate(190.861231, 193.546319)"><g><path d="M 2.386719 -0.984375 L 3.03125 -1.609375 C 3.96875 -2.511719 4.226562 -2.949219 4.226562 -3.515625 C 4.226562 -4.425781 3.59375 -4.964844 2.460938 -4.964844 C 1.273438 -4.964844 0.597656 -4.367188 0.492188 -3.300781 L 0.484375 -3.230469 L 1.75 -3.230469 L 1.757812 -3.300781 C 1.808594 -3.804688 1.992188 -4.039062 2.355469 -4.039062 C 2.703125 -4.039062 2.90625 -3.835938 2.90625 -3.46875 C 2.90625 -3.003906 2.660156 -2.667969 1.933594 -1.984375 L 0.40625 -0.546875 L 0.40625 0 L 4.171875 0 L 4.171875 -0.984375 Z M 2.386719 -0.984375 "/></g></g></g><g fill="#282929" fill-opacity="1"><g transform="translate(195.90298, 193.546319)"><g><path d="M 4.402344 -1.082031 L 4.402344 -2.066406 L 3.8125 -2.066406 L 3.8125 -4.855469 L 2.433594 -4.855469 L 0.265625 -1.78125 L 0.265625 -1.082031 L 2.546875 -1.082031 L 2.546875 0 L 3.8125 0 L 3.8125 -1.082031 Z M 2.546875 -2.066406 L 1.570312 -2.066406 L 2.285156 -3.089844 C 2.363281 -3.195312 2.449219 -3.339844 2.546875 -3.515625 Z M 2.546875 -2.066406 "/></g></g></g></svg>